<?xml version="1.0" encoding="UTF-8"?>
<svg id="Laag_1" xmlns="http://www.w3.org/2000/svg" xmlns:xlink="http://www.w3.org/1999/xlink" version="1.1" viewBox="0 0 523.3 73.3">
  <!-- Generator: Adobe Illustrator 29.2.1, SVG Export Plug-In . SVG Version: 2.1.0 Build 116)  -->
  <defs>
    <style>
      .st0 {
        fill: none;
      }

      .st1 {
        clip-path: url(#clippath);
      }

      .st2 {
        fill: #296bbf;
      }
    </style>
    <clipPath id="clippath">
      <rect class="st0" width="523.3" height="73.3"/>
    </clipPath>
  </defs>
  <g class="st1">
    <g>
      <path class="st2" d="M0,.3h31s-2,15.8,6.4,15.8c8.4,0,6.4-15.8,6.4-15.8h31v72.9h-31.3s2.3-16.4-6.1-16c-8.4.4-6.1,16-6.1,16H0V.3Z"/>
      <path class="st2" d="M139.4,40.8h-12s-2.8-15.5,6-15.5,6,15.5,6,15.5M139.5,73.2h41.6v-.2c0,0-25-72.8-25-72.8h-45.4l-24.9,72.8v.2c0,0,41.5,0,41.5,0,0,0,0,0,0-.2-.1-.9-.6-4.6,0-8.2,0-.4.1-.8.2-1.2.7-3.4,2.3-6.4,6-6.5,2.8,0,4.4,1.5,5.3,3.7,0,.1.1.3.2.4,0,0,0,.2,0,.2,0,.1.1.3.1.4,1.3,4.2.6,9.9.4,11,0,.1,0,.2,0,.2"/>
      <path class="st2" d="M235.6,41h-12s-2.8-15.5,6-15.5,6,15.5,6,15.5M267.3,36.9C265.3-2.3,227.3.3,227.3.3h-35.4v72.9h34.6c42.2-.9,40.7-36.3,40.7-36.3"/>
      <path class="st2" d="M321.8,41h-12s-2.8-15.5,6-15.5,6,15.5,6,15.5M353.5,36.9C351.5-2.3,313.5.3,313.5.3h-35.4v72.9h34.6c42.2-.9,40.7-36.3,40.7-36.3"/>
      <path class="st2" d="M407.2,43.2h-11.6s-2.7-15,5.8-15,5.8,15,5.8,15M400.6,0c-20,0-36.2,16.3-36.2,36.5s16.2,36.5,36.2,36.5,36.2-16.3,36.2-36.5S420.6,0,400.6,0"/>
      <path class="st2" d="M447.7.3h30.2s-1.6,16.3,6.4,15.6c0,0,8,1.3,6.1-15.6h32.8s-.2,23.6-14.8,36c0,0,13.6,9.7,14.8,37h-32.9s2.5-16.6-6.1-16.2c-8.6.4-6.1,16.2-6.1,16.2h-30.5V.3h0Z"/>
    </g>
  </g>
</svg>