<?xml version="1.0" encoding="UTF-8"?>
<svg id="Laag_1" xmlns="http://www.w3.org/2000/svg" xmlns:xlink="http://www.w3.org/1999/xlink" viewBox="0 0 523.39 578.23">
  <defs>
    <style>
      .cls-1, .cls-2 {
        fill: none;
      }

      .cls-2 {
        stroke: #306bb5;
        stroke-miterlimit: 10;
        stroke-width: 2.27px;
      }

      .cls-3 {
        fill: #306bb5;
      }

      .cls-4 {
        clip-path: url(#clippath);
      }

      .cls-5 {
        fill: #296bbf;
      }
    </style>
    <clipPath id="clippath">
      <rect class="cls-1" y="0" width="523.39" height="578.23"/>
    </clipPath>
  </defs>
  <g class="cls-4">
    <path class="cls-5" d="M106.49,372.64l-31.36-.7,3.16-35.76,31.49,3.81-3.3,32.65ZM30.61,325.56l-2.05,3.59s-.95,47.21-3.32,47.9c-2.37.69,51.8,1.97,51.8,1.97l.42,5.29s44.63,6.56,54.06-1.76l1.4-50.75s-100.32-3.7-102.3-6.24"/>
    <path class="cls-5" d="M80.7,340.27s17.11,2.97,25.1.79l-1.89,27.99-24.82-1.13,1.61-27.65Z"/>
    <path class="cls-5" d="M38.63,465.29l61.13-56.84,12.19-.31s58.96,57.33,71.03,59.84l-144.36-2.69ZM208.49,557.98c-4.05-.07-3.75-3.15-3.75-3.15,3.32-38.96,3.41-87.8,3.41-87.8-2.22-7.5-79.47-78.8-79.47-78.8-17.49,3.9-45.69,1.1-45.69,1.1l-66.84,62.83c1.16,23.62-7.79,102.12-7.79,102.12l-6.16-.79L0,576.93l28.31-.5-.61-18.78s-2.27-.24-5.28-.5c-3.02-.26-3.31-3.35-3.31-3.35,7.45-12.16,17.73-79.44,17.73-79.44,2.15-3.81,151.89,4.13,151.89,4.13l1.44,6.19,3.86,75.3-6.3.04-.89,18.21h23.4s2.31-20.19-1.74-20.26"/>
    <path class="cls-5" d="M136.82,381.1l27.42-.95,1.18-35.38-17.76-9.85,16.6-25.67-8.3-13.33s-18.78,25.91-19.35,40.93l.21,44.25Z"/>
    <path class="cls-5" d="M72.28,325.82l62.62,1.29.37-12.68s-13.67-99.15-17.4-100.95c0,0-8.47-13.6-14.53,2.46l-1.85,8.05,1.25,45.82-.97,2.22s-11.72,11.29-22.11,17.85c0,0-2.21,2.01-4.06-.54l-2.41-1.43s-5.85,7.39-12.15,9.95l10.78,12.88,14-11.07-3.26-3.7,13.02-9.71,8.04-4.74.23,12.72s-1.84,13.78-14.01,12.18c0,0-17.71-.23-17.59,12.3l.06,7.11Z"/>
    <path class="cls-5" d="M240.33,86.67l-3.5-3.93-2.37,6.07h0s3.37,7.15,3.37,7.15l4.3-1.12,1.97-5.27-3.76-2.89ZM231.7,111.83l-4.21-5.1-4.3,11.03h0s3.28,5,3.28,5l5.5-.68,3.62-9.7-3.88-.54ZM220.17,139.73l-4.02-3.9-3.19,8.2,2.72,6.39,6.49-2.13,3.86-10.34-5.86,1.77ZM164.55,284.28l-3.62-6.65-4.78,12.28,10.43,7.39,4.62-12.39-6.64-.63ZM172.78,260.05l-3.66-3.43-1.6,4.09,3.37,6.44,7.17-.63,2.55-6.84-7.83.37ZM181.98,236.1l-3.75-2.88-3.38,8.67h0s4.48,2.69,4.48,2.69h6.92l3.07-8.24-7.34-.24ZM191.24,208.22l-2.61-1.73-2.3,5.9,3.94,4.29,6.73-.92,3.16-8.46-8.92.93ZM199.57,192.47l-3.5-5.1-5.91,15.18,2.43,2.96,9.11-2.33,3.99-10.71h-6.12ZM206.08,161.7l-3.5,8.99,3.65,3.71,6.44-.64,2.88-7.69-6.7.52-2.77-4.89ZM214.86,154.16l-3.46-6.12-3.28,8.42,2.51,7.1,7-3.08,2.97-7.95-5.74,1.64ZM205.22,179.37l-4.64-3.59-2.63,6.74,2.91,6.89,7.14-3.13,3.06-8.21-5.84,1.3ZM188.73,221.17l-4.26-3.99-4.39,11.29,3.93,4.67,6.84-.88,4.11-11.02-6.22-.06ZM177.41,248.43l-4.4-1.81-2.04,5.23,2.95,5.06,8.21-1.3,2.68-7.18h-7.4ZM169.61,270.8l-4-5.17-2.48,6.36,3.14,8.34h6.64l3.37-9.01-6.66-.53ZM225.68,126.42l-4.66-3.09-2.27,5.84,2.54,6.26,6.49-2.14,2.73-7.32-4.83.46ZM236.2,100.53l-4.46-4.73-1.36,3.49,3.19,6.69,3.95,1.2,2.97-7.97-4.29,1.32ZM226.34,16.1l1.62-4.14s52.02,141.67,62.36,187.99c-.93-2.82-60.21-182.93-63.98-183.86M237.52,17.69l25.79,24.14c-.36,4.05-14.73,8.13-15.18,8.25,2.47-1.19-13.36-32.17-13.36-32.17,1.23-2.23,2.75-.22,2.75-.22M255.58,71.65l-4.85-14.31,11.85-8.77,1.1,1.39-8.09,21.69ZM287.43,159.96c.92,6.67,2.82,21.83,2.82,21.83l-34.67-103.81,10.69-20.41s20.08,94.6,21.15,102.39M300.65,201.84c-3.31-.69-3.83-3.45-3.83-3.45,0,0-24.29-151.01-30.18-157.28l-33.56-31.93S238.62-.06,227.47,0l-11.61,11.96s-.32,5.99,3.81,8.35l-108.31,188.3,4.59,3.07L223.8,22.67l18.94,44.89-3.34,8.56,3.02,8.23,3.19,1.15.11-.29.34.45.53.69,3.45,4.56,35.91,113.64-3.46,8.12s2.39,6.54,6,3.29c0,0,1.12-5.36,3.48-4.13l.45,2.67,4.19.16,6.55-7.33s.8-4.82-2.51-5.5"/>
    <path class="cls-3" d="M475.86,335h18.99s-.99,10.22,4.03,9.81c0,0,5.05.85,3.87-9.81h20.64s-.15,14.84-9.29,22.67c0,0,8.53,6.09,9.29,23.26h-20.7s1.57-10.45-3.82-10.21-3.82,10.21-3.82,10.21h-19.2v-45.93Z"/>
    <path class="cls-3" d="M182.49,334.69h19.51s-1.26,9.96,4.03,9.93c5.29-.04,4.03-9.93,4.03-9.93h19.51v45.9h-19.7s1.45-10.3-3.83-10.06c-5.29.23-3.84,10.06-3.84,10.06h-19.7v-45.9Z"/>
    <path class="cls-3" d="M270.17,360.2h-7.54s-1.75-9.78,3.77-9.78,3.77,9.78,3.77,9.78M270.24,380.59h26.16l-.04-.12-15.68-45.77h-28.55l-15.67,45.77-.04.12h26.15s0-.04-.02-.12c-.07-.54-.36-2.86-.06-5.13.03-.24.07-.48.11-.73.42-2.14,1.46-4.03,3.81-4.09,1.73-.04,2.74.97,3.33,2.36.04.08.07.17.1.26.02.05.04.1.05.15.03.09.06.18.09.27.81,2.67.38,6.21.28,6.91,0,.08-.02.12-.02.12"/>
    <path class="cls-3" d="M330.72,360.32h-7.53s-1.75-9.79,3.77-9.79,3.77,9.79,3.77,9.79M350.66,357.73c-1.27-24.65-25.14-23.04-25.14-23.04h-22.27v45.9h21.8c26.58-.56,25.62-22.85,25.62-22.85"/>
    <path class="cls-3" d="M384.98,360.32h-7.54s-1.75-9.79,3.77-9.79,3.77,9.79,3.77,9.79M404.92,357.73c-1.27-24.65-25.14-23.04-25.14-23.04h-22.27v45.9h21.8c26.58-.56,25.62-22.85,25.62-22.85"/>
    <path class="cls-3" d="M453.98,363.01c-1.1-.75-1.66-.78-1.79-.73-.12.05-.29.37-.35.61-.48,3.25-2.98,5.09-4.44,5.69-.51.23-3.43,1.49-7.23,1.49-.3,0-.6,0-.91-.02-6.08-.32-8.18-3.35-9.56-5.35-.39-.54-.71-1.02-1.03-1.3-.63-.57-1.36-.14-1.64.07l-2.34-2.95c1.16-.94,4.02-2.14,6.49.06.65.57,1.13,1.28,1.61,1.96,1.25,1.8,2.43,3.51,6.67,3.74,3.52.19,6.33-1.12,6.36-1.13l.13-.06c.05-.02,1.88-.81,2.14-2.79l.02-.1c.05-.26.54-2.54,2.62-3.4,1.55-.64,3.36-.27,5.37,1.1l-2.13,3.12ZM432.7,351.22c2.03.15,3.87,1.18,5.32,3l.16.23c.08.14.83,1.47,1.21,3.8.23,1.36,1.46,1.59,1.48,1.59l.16.03c.34.08,2.14.44,2.85-1.11l3.43,1.58c-1.22,2.67-3.64,3.39-5.53,3.39-.63,0-1.19-.07-1.64-.19-1.46-.29-3.96-1.57-4.47-4.69-.21-1.3-.57-2.13-.7-2.42-.76-.91-1.59-1.38-2.52-1.45-1.8-.14-3.75,1.24-4.35,1.8l-2.56-2.77c.34-.32,3.42-3.07,7.17-2.79M446.8,351.16c2.39-.12,4.68.97,6.79,3.22l-2.75,2.58c-1.31-1.4-2.61-2.08-3.86-2.03-1.9.09-3.36,1.87-3.38,1.9l-2.98-2.31c.1-.13,2.49-3.18,6.18-3.35M458.89,358c1.77-.08,2.35-.36,2.35-.36,0,0,.6-.23,2.45-2.06,2.49-2.47,5.82-1.68,5.82-1.68,0,0-2.86-2.67-6.48-.49-3.31,1.99-4.59,1.5-4.59,1.5,0,0-2.6-.35-2.95-2.31-.39-2.08,2.15-4.09,2.15-4.09,0,0,1.73-.99,2.95-4.52,1.21-3.53,4.54-4.02,4.54-4.02,0,0-6.02-2.2-7.6,2.77-.81,2.54-2.73,3.71-2.73,3.71-3.46,1.41-4.36-2.35-4.36-2.35-.64-2.48,1.03-4.96,1.03-4.96,0,0,1.44-2.54.6-4.19-.91-1.78.85-4.78.85-4.78-4.98.95-4.85,6.3-4.85,6.3.2,2.51.68,5.13-1.96,6.06-3.46,1.19-3.49-2.44-3.49-2.44.23-4.15-1.6-5.89-1.6-5.89-2.48-2.46-1.5-5.2-1.5-5.2-4.42,2.67-.97,7.73-.97,7.73,1.07,2.14.79,4.99-.93,5.57-2.79.96-3.46-1.51-3.46-1.51,0,0-.6-3.71-3.97-4.69-3.38-.97-4.17-4.36-4.17-4.36,0,0-1.99,4.72,1.12,6,2.41,1,3.26,3.65,3.26,3.65,0,0,.79,1.78-.16,3.27-1.62,2.54-4.02.58-4.02.58-2.35-2.25-4.58-1.4-4.58-1.4-2.94.72-5.01-2.17-5.01-2.17.2,3.12.65,3.65,1.96,4.73,1.31,1.1,1.42.79,4.58,1.69,3.16.9,2.86,3.03,2.86,3.03-.24,2.35-3.22,2.25-3.22,2.25,0,0-2.35-.42-4.86,1.69-3.05,2.56-6.51.57-6.64.5.09.24,1.95,4.85,5.82,2.88,3.82-1.94,5.87-.03,5.87-.03,3.02,2.73-.48,4.33-.48,4.33,0,0-3.75,1.32-4.79,4.14-1.21,3.27-4.63,2.61-4.63,2.61,4.96,3.2,7.62-.98,7.62-.98,1.3-2.18,2.91-2.82,2.91-2.82,1.93-.87,3.78.86,4.06,2.4.29,1.61-.67,2.43-.67,2.43,0,0-2.89,1.99-2.5,4.79.37,2.7-2.54,4.68-2.54,4.68,5.52.45,5.8-3.05,5.8-3.05,1.12-4.94,4.74-4.79,4.74-4.79,0,0,1.56-.2,2.67,1.37,1.15,1.62.49,4.36.49,4.36,0,0-.47,2,.98,3.2,1.83,1.52.38,4.8.38,4.8,4.12-1.09,3.27-4.63,3.27-4.63-.98-2.94-.38-5.83-.38-5.83.23-1.12.91-3.03,2.82-3.42,2.29-.47,3.25,1.74,3.25,1.74,1.35,3.47,2.35,3.49,2.37,3.49,4.39.93,4.62,4.51,4.62,4.51,1.34-2.12,1.04-4.48-1.03-6.32-1.48-1.31-1.24-3.42-1.24-3.42.73-6.61,4.8-4.29,4.8-4.29,3.73,2.29,4.93,1.15,4.93,1.15,2.25-1.17,4.7-.05,4.7-.05l-.83-2.25s-.66-2.27-3.97-2.04c-2.58.18-3.61-1.34-3.61-1.34-1.38-1.63-.66-3.07-.66-3.07,0,0,.4-1.99,2.79-2.11"/>
    <path class="cls-2" d="M453.98,363.01c-1.1-.75-1.66-.78-1.79-.73-.12.05-.29.37-.35.61-.48,3.25-2.98,5.09-4.44,5.69-.51.23-3.43,1.49-7.23,1.49-.3,0-.6,0-.91-.02-6.08-.32-8.18-3.35-9.56-5.35-.39-.54-.71-1.02-1.03-1.3-.63-.57-1.36-.14-1.64.07l-2.34-2.95c1.16-.94,4.02-2.14,6.49.06.65.57,1.13,1.28,1.61,1.96,1.25,1.8,2.43,3.51,6.67,3.74,3.52.19,6.33-1.12,6.36-1.13l.13-.06c.05-.02,1.88-.81,2.14-2.79l.02-.1c.05-.26.54-2.54,2.62-3.4,1.55-.64,3.36-.27,5.37,1.1l-2.13,3.12ZM432.7,351.22c2.03.15,3.87,1.18,5.32,3l.16.23c.08.14.83,1.47,1.21,3.8.23,1.36,1.46,1.59,1.48,1.59l.16.03c.34.08,2.14.44,2.85-1.11l3.43,1.58c-1.22,2.67-3.64,3.39-5.53,3.39-.63,0-1.19-.07-1.64-.19-1.46-.29-3.96-1.57-4.47-4.69-.21-1.3-.57-2.13-.7-2.42-.76-.91-1.59-1.38-2.52-1.45-1.8-.14-3.75,1.24-4.35,1.8l-2.56-2.77c.34-.32,3.42-3.07,7.17-2.79ZM446.8,351.16c2.39-.12,4.68.97,6.79,3.22l-2.75,2.58c-1.31-1.4-2.61-2.08-3.86-2.03-1.9.09-3.36,1.87-3.38,1.9l-2.98-2.31c.1-.13,2.49-3.18,6.18-3.35ZM458.89,358c1.77-.08,2.35-.36,2.35-.36,0,0,.6-.23,2.45-2.06,2.49-2.47,5.82-1.68,5.82-1.68,0,0-2.86-2.67-6.48-.49-3.31,1.99-4.59,1.5-4.59,1.5,0,0-2.6-.35-2.95-2.31-.39-2.08,2.15-4.09,2.15-4.09,0,0,1.73-.99,2.95-4.52,1.21-3.53,4.54-4.02,4.54-4.02,0,0-6.02-2.2-7.6,2.77-.81,2.54-2.73,3.71-2.73,3.71-3.46,1.41-4.36-2.35-4.36-2.35-.64-2.48,1.03-4.96,1.03-4.96,0,0,1.44-2.54.6-4.19-.91-1.78.85-4.78.85-4.78-4.98.95-4.85,6.3-4.85,6.3.2,2.51.68,5.13-1.96,6.06-3.46,1.19-3.49-2.44-3.49-2.44.23-4.15-1.6-5.89-1.6-5.89-2.48-2.46-1.5-5.2-1.5-5.2-4.42,2.67-.97,7.73-.97,7.73,1.07,2.14.79,4.99-.93,5.57-2.79.96-3.46-1.51-3.46-1.51,0,0-.6-3.71-3.97-4.69-3.38-.97-4.17-4.36-4.17-4.36,0,0-1.99,4.72,1.12,6,2.41,1,3.26,3.65,3.26,3.65,0,0,.79,1.78-.16,3.27-1.62,2.54-4.02.58-4.02.58-2.35-2.25-4.58-1.4-4.58-1.4-2.94.72-5.01-2.17-5.01-2.17.2,3.12.65,3.65,1.96,4.73,1.31,1.1,1.42.79,4.58,1.69,3.16.9,2.86,3.03,2.86,3.03-.24,2.35-3.22,2.25-3.22,2.25,0,0-2.35-.42-4.86,1.69-3.05,2.56-6.51.57-6.64.5.09.24,1.95,4.85,5.82,2.88,3.82-1.94,5.87-.03,5.87-.03,3.02,2.73-.48,4.33-.48,4.33,0,0-3.75,1.32-4.79,4.14-1.21,3.27-4.63,2.61-4.63,2.61,4.96,3.2,7.62-.98,7.62-.98,1.3-2.18,2.91-2.82,2.91-2.82,1.93-.87,3.78.86,4.06,2.4.29,1.61-.67,2.43-.67,2.43,0,0-2.89,1.99-2.5,4.79.37,2.7-2.54,4.68-2.54,4.68,5.52.45,5.8-3.05,5.8-3.05,1.12-4.94,4.74-4.79,4.74-4.79,0,0,1.56-.2,2.67,1.37,1.15,1.62.49,4.36.49,4.36,0,0-.47,2,.98,3.2,1.83,1.52.38,4.8.38,4.8,4.12-1.09,3.27-4.63,3.27-4.63-.98-2.94-.38-5.83-.38-5.83.23-1.12.91-3.03,2.82-3.42,2.29-.47,3.25,1.74,3.25,1.74,1.35,3.47,2.35,3.49,2.37,3.49,4.39.93,4.62,4.51,4.62,4.51,1.34-2.12,1.04-4.48-1.03-6.32-1.48-1.31-1.24-3.42-1.24-3.42.73-6.61,4.8-4.29,4.8-4.29,3.73,2.29,4.93,1.15,4.93,1.15,2.25-1.17,4.7-.05,4.7-.05l-.83-2.25s-.66-2.27-3.97-2.04c-2.58.18-3.61-1.34-3.61-1.34-1.38-1.63-.66-3.07-.66-3.07,0,0,.4-1.99,2.79-2.11Z"/>
  </g>
</svg>