<?xml version="1.0" encoding="UTF-8"?>
<svg id="Laag_1" xmlns="http://www.w3.org/2000/svg" xmlns:xlink="http://www.w3.org/1999/xlink" viewBox="0 0 134.32 111.8">
  <defs>
    <style>
      .cls-1, .cls-2, .cls-3 {
        fill: none;
      }

      .cls-2 {
        stroke-width: 1.5px;
      }

      .cls-2, .cls-3 {
        stroke: #99b5ff;
        stroke-miterlimit: 10;
      }

      .cls-4 {
        clip-path: url(#clippath);
      }
    </style>
    <clipPath id="clippath">
      <rect class="cls-1" x="0" y="0" width="134.32" height="111.8"/>
    </clipPath>
  </defs>
  <line class="cls-3" x1="42.98" y1="64.28" x2="54.27" y2="59.8"/>
  <g class="cls-4">
    <path class="cls-2" d="M53.3,50.5s-4.37-20.26,16.11-27.16c0,0,24.71-6.21,28.24,20.56,0,0,6.22,1.92,12.43,2.15l9.05-3.22,3.07-4.3s2.15-1.92,1.53,0c-.61,1.92-1.76,1.71-1.59,3.38,0,0,8.29-1.64,8.54.97.1,1.04-8.95,2.46-9.11,2.46,0,0-4.78,1.18-9.92,3.5,0,0-12.69-.26-13.51-.9,0,0,.26,5.45-4.04,11.87,0,0-1.3,2.07,8.16,7.31,0,0,1.24.87-.49,3.94-2.05,3.65-3.48,4.96-3.48,4.96,0,0-1.36,1.53-3.27,2.87-1.92,1.33-.26,2.25-.26,2.25,0,0,.95.56,5.12.66,0,0,2.77.92-.51,2.3,0,0-3.53.41-8.75-1.12,0,0-2.43-.21-.66-2.35,0,0,5.52-4.73,7.11-8.59,1.59-3.86-2.1-6.09-2.1-6.09,0,0-1.79-2.02-4.25-1.79,0,0-1.15.05-3.53,1.74-2.38,1.69-7.06,2.92-7.06,2.92,0,0-5.4.72-8.54.51-3.15-.21-3.32-1.23-3.32-1.23l2.56,8.44s.26.38-2.33,2.76c-2.58,2.38-6.16,4.86-6.16,4.86,0,0-1.79,1.13.66,1.79,2.46.67,3.27,1.94,3.27,1.94,0,0,1.89,1.58-.56,1.99,0,0-1.76.15-5.37-1.53,0,0-2.22-.31-2.51-.51-.39-.27-1.79-.67.25-2.92,2.05-2.25,8.08-8.29,8.08-8.29,0,0,.18-7.26-1.59-9.21,0,0-6.47-2.89-9.67-11.46,0,0-5.76,3.68-6.91,5.37s-.31,9.41-.31,9.41l2.76,1.43s1.18.9,0,1.33c-1.18.43-3.53-.56-3.53-.56l-5.17,3.22s-.72.66-1.74.2.92-2.15.92-2.15l4.6-3.17s.61.77-.1-3.68c0,0-1.23-3.79-1.07-7.26,0,0-.41-.92,4.55-4.71,4.96-3.79,4.35-4.91,4.35-4.91Z"/>
    <path class="cls-3" d="M73.33,49.01s1.46,3.25,6.68,2.25M68.49,39.07s3.91,1.68,5.6-.69M86.76,38.37s-1.92,2.22-4.91,0c0,0-2.38-.15-.77,2.46,0,0,1.46,2.92-1.23,3.99,0,0-1.46.46-2.61-1.15"/>
    <path class="cls-2" d="M38.45,88.25s2.96,1.64,11.15,13.01c0,0,5.87,6.72,11.86,7.94,11.03,2.25,26.8,5.18,50.36-9.6M87.87,26.05c2.72-4.26-7.86-7.32-7.86-7.32-5.99-3.38-8.71-13.35-8.71-13.35-6.87-8.98-18.91-2.13-18.91-2.13,0,0-4.07,3.36-15.96.6-11.89-2.76-15.81,4.91-15.81,4.91-.77,5.83-7.83,7.67-7.83,7.67-11.97,5.68-5.83,17.96-5.83,17.96,0,0,2.61,4.68-2.61,8.9-5.22,4.22-3.22,9.97-3.22,9.97,2.76,8.29,8.29,9.82,8.29,9.82,1.92,2.53,33.76,6.14,33.76,6.14,0,0,1.61,1.92-7.06,6.44,0,0-10.14,8.59,3.64,13.05,0,0,11.71.15,13.39,7.67,1.69,7.52,11.82,8.13,11.82,8.13,0,0,4.6.23,9.13-1.99,0,0,6.06-4.91,14.96-2,0,0,25.55,8.35,28.54-10.64,0,0-.46-10.47,5.37-12.38,0,0,16.34-10.51,8.44-17.03-7.9-6.52-16.11-4.17-16.11-4.17,0,0-12.78,5.54-18.32-2.12"/>
    <path class="cls-3" d="M48.03,61.34l1.59,1.83M52.72,57.46l1.73,3.28M50.9,59.17l1.4,3.15M47.48,67.46l11.75-4.29M97.29,54.18c5.29,7.1,15.97,2.77,15.97,2.77,0,0,7.83-2.18,15.38,3.86,7.54,6.04-8.06,15.77-8.06,15.77-5.57,1.78-5.13,11.47-5.13,11.47-2.86,17.58-27.24,9.85-27.24,9.85-8.49-2.7-14.28,1.85-14.28,1.85-4.32,2.06-8.72,1.85-8.72,1.85,0,0-9.67-.57-11.28-7.53-1.61-6.96-12.78-7.1-12.78-7.1-13.15-4.12-3.48-12.08-3.48-12.08,8.28-4.19,6.74-5.97,6.74-5.97l1.71-.69M24.6,11.98s10.91,7.76,26.3,41.84M74.1,17.81s-3.45.67-2.8,4.9M66.67,6.61s-7.82,5.18-4.84,20.59M55.14,5.99s-8.75,8.29-.68,30.97M42.77,9.75s-1.44,16.34,10.53,40.75M13.71,22.71s17.39,1.54,35.25,32.7M11.56,39.01s16.11-1.75,33.78,19.54M9.26,56.94s14.92-5.58,35.16,4.73"/>
  </g>
</svg>