<?xml version="1.0" encoding="UTF-8"?>
<svg id="Laag_1" xmlns="http://www.w3.org/2000/svg" xmlns:xlink="http://www.w3.org/1999/xlink" viewBox="0 0 124.37 113.19">
  <defs>
    <style>
      .cls-1, .cls-2, .cls-3 {
        fill: none;
      }

      .cls-2 {
        stroke-width: 1.5px;
      }

      .cls-2, .cls-3 {
        stroke: #99b5ff;
        stroke-miterlimit: 10;
      }

      .cls-4 {
        clip-path: url(#clippath);
      }
    </style>
    <clipPath id="clippath">
      <rect class="cls-1" y="0" width="124.37" height="113.18"/>
    </clipPath>
  </defs>
  <g class="cls-4">
    <path class="cls-2" d="M76.61,66.93s-7.25,4.56-6.64,7.61c.6,3.05,4.31,6.84,4.31,6.84,0,0,.85.97-.08,1.87-1.06,1.02-4.11,1.98-7.55,1.96-6.74-.04,3.32-4.53,3.32-4.53,0,0-5.81-6.34-4.53-8.15,1.28-1.81,3.67-4.25,3.67-4.25M72.28,66.78s5.86-4.13,2.16-10.84M34.72,74.63s3.4,0,3.77-1.36c.38-1.36.49-8.64,1.11-9.21.62-.57,9.38-.38,9.38-.38,2.23,1.66,4.15,2.34,4.15,2.34,12.3,6.52,18.9.79,19.04.8,18.39,1.53,13.82-12.6,13.82-12.6,5.85-8.57,2.99-19,2.99-19,2.53-6.76,2.26-12.98,2.26-12.98-4.15-10.3-8.23-14.64-8.23-14.64-2.98-4.34-5.96-4.3-5.96-4.3-1.17.19-3.55,1.56-3.55,1.56,3.13.49,3.77,2.67,3.77,2.67-2.41-.08-2.87.98-2.87.98-1.06,1.96.98,1.66.98,1.66l2.79-.91s1.74-.72,3.62,1.36c1.89,2.08,5.36,10.49,5.36,10.49.11,6.19-.83,8.08-.83,8.08,0,0-7.25-15.32-28.23-11.32-20.98,4-18.42,27.02-18.42,27.02-3.59-1.96-12.11-9.55-12.68-10.11-.57-.57-.68-2.11-.68-2.11-1.73-8.07.91-12.53.91-12.53,1.24-1.81,3.02-2.11,3.02-2.11,1.4-.68,1.96-1.21,1.96-1.21.64-1.55-1.28-.91-1.28-.91,0,0-2.53.49-2.87-.3-.34-.79,3.06-2.57,3.06-2.57.47-1.36-.5-1.1-1.8-1.23-1.32-.13-2.06.25-2.06.25-4.75.94-4.19,7.86-4.19,7.86-1.74,9.06-.53,16-.53,16-.94,1.62,16.72,10.98,17.81,15.47,1.09,4.49,4.45,7.7,4.45,7.7-.72.98-4.83.76-4.83.76-4-.42-3.17,1.58-3.17,1.58.38,7.7-.45,8.91-.45,8.91-4.64.3-5.36,1.89-5.36,1.89,0,0-1.74,2.83,3.7,2.42Z"/>
    <path class="cls-3" d="M83.59,8.27s10.83,2.84,12.27,9.21l2.57,5.52s2.04,3.47,0,9.36c-2.04,5.89-9.27,15.82-9.27,15.82M28.43,14.84s8.63-1.36,12.78-6.04c0,0,5.51-7.62,17.06-3.62,0,0,8.29,4.31,18.56,1.49M36.83,67.92s-25.36-7.64-28.23-13.53c0,0-7.17-8.15-5.44-13.89,0,0-.53-2.57,5.44-5.13,0,0,8.23-1.96,9.81-9.96,0,0,1.71-6.28,4.93-7.93"/>
    <path class="cls-2" d="M26.94,87.79s5.36,1.63,8.99,10.53c0,0,5.66,14.13,26.12,14.04,0,0,8.53.59,19.78-1.66,11.63-2.33,16.45-5.43,16.45-5.43M86.57,59.37c2.35.84,4.76,5.44,16.38,3.78,11.62-1.66,18.87,4.83,18.87,4.83,0,0,5.43,6.94-2.57,12.08-8,5.13-7.85,9.81-7.85,9.81,0,0,1.28,17.21-15.55,15.25,0,0-23.12-5.81-32.84-.6,0,0-10.71,7.47-18.33-3.17,0,0-4.38-11.32-12.98-12.08-8.6-.75-7.7-7.7-7.7-7.7,0,0-.03-5.09,6.76-8.31"/>
    <path class="cls-3" d="M96.01,28.48s-4.42,1.77-6.51,9.62M13.13,51.98s11.62-2.04,23.7,9.44M80,12.73s-3.02,2.62-3.4,6.55M60.08,10.62s-1.06,3.31,0,6.86M19.17,34.24l3.4,1.66M38.64,16.81s5.89,2.42,5.96,9.02M86.4,19.29s-1.7,2.28-2.31,6.54M89.06,14.05l-.86,1.54M28.53,22.71s7.63.89,12.12,11.54M70.46,10.62s-2.83,3.61-1.55,6.86M46.79,8.91s3.22-1.94,4.63,11.21M7.47,42.13s16.49-3.85,31.17,17.66M86.21,60.3c2.18.76,5.09,5.37,15.92,3.86,10.83-1.51,17.58,4.38,17.58,4.38,0,0,5.06,6.29-2.39,10.95-7.46,4.65-7.32,8.89-7.32,8.89,0,0,1.2,15.6-14.49,13.82,0,0-21.54-5.27-30.61-.55,0,0-9.98,6.77-17.08-2.87,0,0-4.1-10.02-12.1-10.95-18.22-2.11-4.59-13.81-4.59-13.81"/>
    <path class="cls-2" d="M81.46,5.69s15.67,3,16.38,10.16l3,5.81s2.38,3.66,0,9.86c-2.38,6.2-10.76,15.34-10.76,15.34M31.14,13.03s4.99-.73,8.96-5.99c0,0,7.74-9.93,19.37-4.84,0,0,4.88,3.23,14.05,2.65M36.83,67.92s-26.42-8.55-30.01-14.39c0,0-7.62-8.72-5.78-14.85,0,0-.56-2.75,5.78-5.49,0,0,8.75-2.1,10.43-10.66,0,0,1.45-6.65,6.63-7.94"/>
  </g>
  <line class="cls-3" x1="38.98" y1="69.04" x2="50.27" y2="64.56"/>
</svg>